<?xml version="1.0" standalone="no"?>
<!DOCTYPE svg PUBLIC "-//W3C//DTD SVG 20010904//EN"
 "http://www.w3.org/TR/2001/REC-SVG-20010904/DTD/svg10.dtd">
<svg version="1.0" xmlns="http://www.w3.org/2000/svg"
 width="2000.000000pt" height="2000.000000pt" viewBox="0 0 2000.000000 2000.000000"
 preserveAspectRatio="xMidYMid meet">
<metadata>
Created by potrace 1.11, written by Peter Selinger 2001-2013
</metadata>
<g transform="translate(0.000000,2000.000000) scale(0.100000,-0.100000)"
fill="#000000" stroke="none">
<path d="M7053 17038 c-80 -110 -114 -176 -168 -328 -90 -250 -90 -485 0 -748
16 -48 26 -105 30 -170 7 -123 7 -437 0 -477 -14 -76 -18 -94 -40 -150 -13
-33 -37 -106 -54 -163 -37 -118 -55 -138 -111 -122 -53 15 -108 59 -183 145
-99 114 -176 235 -194 303 -21 77 -20 354 1 469 2 10 7 50 11 88 4 39 9 84 11
100 18 133 25 561 15 881 -3 95 -12 138 -23 118 -20 -34 -168 -539 -198 -674
-13 -56 -48 -241 -55 -290 -4 -24 -8 -47 -10 -50 -2 -3 -6 -21 -9 -40 -6 -36
-11 -65 -21 -110 -11 -53 -15 -78 -26 -162 -7 -49 -15 -88 -19 -88 -4 0 -34
26 -66 58 -64 61 -109 122 -148 198 l-24 47 -18 -29 c-15 -22 -18 -44 -17
-108 5 -192 86 -373 302 -676 41 -58 78 -107 81 -110 4 -3 13 -16 20 -30 30
-56 215 -294 290 -371 14 -15 68 -73 120 -130 119 -128 195 -204 346 -346 65
-61 140 -131 165 -155 25 -23 74 -70 110 -102 35 -32 84 -78 109 -101 61 -56
134 -115 196 -158 113 -78 479 -298 694 -417 99 -55 405 -210 415 -210 3 0 24
-8 48 -18 23 -11 78 -34 122 -52 86 -35 226 -107 423 -217 110 -61 292 -213
292 -243 0 -26 -73 -42 -160 -37 -47 3 -92 8 -100 11 -8 3 -26 7 -40 10 -14 2
-45 9 -70 16 -25 7 -52 14 -60 15 -8 2 -40 10 -70 18 -30 8 -77 18 -105 22
-64 10 -55 8 -160 40 -211 64 -306 75 -358 40 -33 -22 -41 -50 -34 -125 11
-124 152 -414 248 -512 58 -59 93 -78 196 -108 55 -16 169 -20 192 -6 4 3 39
8 77 11 90 8 139 -10 197 -75 65 -73 161 -244 201 -358 29 -84 118 -405 131
-473 10 -53 70 -263 95 -333 38 -110 55 -148 86 -193 14 -21 81 -150 149 -288
129 -260 196 -364 269 -416 23 -17 40 -39 41 -51 3 -30 50 -68 88 -69 178 -7
249 9 282 63 10 18 32 44 49 58 100 84 146 160 336 555 24 50 56 108 71 130
67 102 109 223 210 610 39 148 86 317 105 375 59 177 190 389 270 436 49 29
51 29 277 8 58 -6 81 -2 150 20 143 47 213 116 305 301 101 205 135 322 114
393 -26 87 -105 89 -371 11 -74 -21 -143 -39 -155 -39 -12 0 -102 -21 -201
-46 -197 -50 -328 -65 -389 -44 -22 7 -36 18 -36 28 0 19 80 98 165 163 90 70
432 251 606 323 299 123 652 313 1084 584 210 132 258 172 575 472 80 76 163
155 185 175 98 91 156 148 240 236 235 249 346 382 476 569 43 63 112 162 153
220 164 233 241 419 247 591 3 64 -5 103 -24 127 -7 9 -19 -3 -46 -52 -20 -36
-56 -89 -81 -118 -50 -60 -118 -123 -125 -116 -3 2 -9 38 -15 79 -13 91 -17
115 -35 204 -8 39 -26 135 -40 214 -37 212 -166 700 -238 896 l-15 40 -6 -35
c-14 -86 -24 -716 -12 -825 2 -16 6 -61 10 -100 4 -38 9 -81 11 -95 4 -27 10
-73 22 -185 4 -38 8 -151 8 -250 0 -173 -1 -182 -26 -235 -42 -88 -148 -229
-244 -325 -72 -72 -164 -100 -189 -59 -22 39 -127 369 -132 418 -9 82 -10 360
-2 475 5 66 17 134 33 181 52 161 58 199 59 355 0 164 -5 206 -35 307 -23 77
-88 238 -120 294 -34 61 -111 165 -117 159 -6 -6 -3 -103 4 -139 2 -11 9 -50
15 -86 5 -36 16 -93 24 -127 41 -178 55 -391 29 -465 -24 -71 -76 -116 -152
-133 -54 -11 -123 40 -291 215 -81 85 -164 164 -183 174 -96 52 -154 -45 -91
-153 45 -79 204 -314 244 -362 32 -39 129 -191 129 -204 0 -2 15 -30 34 -62
28 -48 64 -149 81 -231 2 -9 20 -84 40 -167 20 -82 38 -157 40 -165 2 -8 18
-76 35 -150 34 -142 37 -195 19 -320 -13 -88 -35 -143 -86 -213 -21 -29 -41
-56 -45 -62 -13 -18 -56 -69 -102 -120 l-44 -50 24 85 c50 168 63 249 59 350
-7 191 -94 367 -192 392 -26 7 -29 1 -10 -21 42 -48 50 -127 33 -288 -12 -109
-18 -131 -73 -263 -17 -39 -86 -177 -116 -230 -11 -19 -38 -69 -60 -110 -78
-145 -236 -400 -305 -494 -71 -95 -101 -121 -227 -193 -108 -62 -305 -165
-305 -159 0 2 41 53 91 113 50 59 98 117 107 128 9 11 41 48 70 83 71 82 99
124 134 202 64 142 97 282 84 354 -9 45 -17 45 -35 4 -13 -31 -274 -362 -355
-453 -135 -149 -531 -534 -591 -574 -106 -71 -285 -151 -285 -128 0 3 8 25 19
49 24 56 67 182 80 233 34 134 46 341 27 475 -14 95 -25 144 -32 138 -5 -6
-113 -399 -125 -458 -5 -25 -12 -56 -15 -70 -9 -43 -73 -182 -114 -250 -22
-36 -78 -105 -125 -155 -80 -84 -193 -246 -224 -322 -18 -45 -91 -77 -241
-108 -117 -24 -502 -23 -582 1 -9 3 -26 7 -39 9 -36 7 -91 26 -143 48 -42 19
-51 29 -72 75 -43 96 -122 216 -191 287 -99 103 -127 141 -178 244 -58 116
-63 129 -81 216 -21 95 -16 78 -75 293 -34 122 -56 187 -61 178 -4 -7 -14 -56
-22 -107 -17 -115 -14 -315 7 -424 15 -76 64 -233 101 -319 l16 -39 -32 7
c-46 9 -188 80 -260 129 -61 42 -473 446 -598 586 -57 65 -137 163 -288 354
-26 33 -54 75 -63 95 -16 34 -17 35 -25 11 -10 -32 -8 -103 6 -163 15 -66 74
-222 105 -278 22 -40 155 -204 303 -377 82 -95 81 -96 -54 -26 -294 152 -342
190 -460 365 -91 135 -145 225 -261 435 -206 371 -239 464 -248 695 -4 88 -2
99 24 153 26 55 27 57 7 51 -106 -32 -186 -200 -192 -404 -3 -102 0 -128 27
-230 16 -63 32 -122 34 -130 2 -8 8 -28 15 -45 6 -16 7 -25 2 -20 -4 6 -33 39
-63 75 -30 35 -62 73 -71 84 -42 46 -112 162 -124 204 -23 74 -34 236 -21 299
4 18 21 90 38 160 17 71 32 135 34 143 11 50 47 200 55 230 13 45 40 150 45
173 10 43 20 65 92 190 42 73 92 152 113 177 39 47 128 177 218 317 64 100 75
154 42 196 -45 57 -97 31 -245 -123 -222 -231 -266 -264 -335 -254 -72 11
-131 71 -152 155 -13 53 -10 194 6 294 14 83 17 101 26 135 5 19 12 51 15 70
9 54 17 103 22 125 8 41 16 175 10 175 -4 0 -23 -24 -44 -52z"/>
<path d="M14788 8135 c-2 -1 -41 -5 -88 -8 -115 -8 -211 -21 -275 -38 -38 -11
-48 -13 -94 -23 -26 -6 -156 -53 -201 -73 -307 -136 -536 -326 -712 -592 -52
-78 -128 -218 -128 -236 0 -5 -6 -21 -13 -35 -33 -65 -91 -259 -102 -346 -16
-125 -19 -173 -19 -299 -1 -192 13 -310 54 -460 23 -82 83 -248 101 -275 5 -8
18 -34 29 -57 19 -43 115 -194 147 -234 73 -89 173 -189 268 -268 105 -87 328
-210 482 -265 100 -35 247 -70 348 -81 28 -4 58 -9 68 -12 24 -6 370 -6 394 0
10 3 45 9 78 12 33 4 87 13 120 21 33 8 71 17 85 20 138 28 453 178 531 253 9
9 26 23 39 31 12 8 51 42 86 74 l63 60 -110 109 -110 109 -22 -19 c-12 -11
-40 -36 -62 -56 -153 -137 -383 -251 -570 -282 -16 -3 -55 -10 -85 -16 -64
-13 -294 -17 -394 -6 -167 18 -345 70 -476 139 -90 48 -191 109 -205 124 -5 5
-32 28 -60 50 -52 41 -147 137 -173 176 -9 13 -19 25 -22 28 -24 18 -139 213
-141 237 0 5 -5 13 -10 20 -11 13 -76 201 -83 238 -3 14 -7 33 -10 43 -13 47
-20 153 -19 302 0 193 21 313 81 468 126 328 334 556 654 718 86 43 276 107
356 119 23 3 56 8 74 11 59 10 358 11 406 2 153 -30 274 -61 320 -83 30 -14
58 -25 62 -25 31 0 277 -166 325 -220 46 -51 48 -50 165 65 l108 107 -59 56
c-56 56 -173 152 -183 152 -3 0 -30 16 -61 35 -155 100 -386 179 -610 211 -96
14 -338 27 -347 19z"/>
<path d="M6715 6481 l0 -1630 172 1 173 1 0 516 0 516 463 1 c254 0 508 3 565
6 l103 7 53 -72 c29 -40 80 -110 113 -157 158 -224 407 -576 412 -580 4 -3 20
-25 36 -50 16 -25 54 -77 82 -117 l53 -72 185 0 c102 0 185 3 185 7 0 4 -9 18
-20 32 -11 14 -70 95 -130 180 -60 85 -113 160 -118 165 -5 6 -24 33 -43 60
-19 28 -132 188 -253 357 -120 168 -219 310 -220 313 0 4 26 17 59 30 295 111
508 316 605 583 35 95 36 100 51 187 18 101 25 274 14 360 -13 111 -17 135
-32 190 -9 33 -20 64 -24 70 -5 5 -9 15 -9 22 0 13 -48 117 -78 169 -68 117
-213 258 -346 336 -105 62 -300 137 -397 153 -24 4 -53 9 -64 12 -90 20 -232
25 -870 30 l-720 4 0 -1630z m1310 1325 c105 -5 124 -7 205 -23 148 -28 305
-89 388 -150 195 -146 290 -340 297 -604 1 -64 -2 -141 -7 -170 -5 -30 -10
-63 -12 -74 -15 -107 -106 -271 -196 -355 -80 -74 -101 -89 -195 -135 -127
-63 -273 -98 -465 -111 -45 -4 -860 -7 -952 -5 l-28 1 0 814 0 815 48 3 c77 5
797 0 917 -6z"/>
<path d="M10077 6493 c1 -890 2 -1623 2 -1630 1 -9 44 -12 171 -12 l170 0 0
517 0 517 448 0 c246 1 501 4 568 7 l121 7 49 -70 c27 -39 87 -124 134 -189
47 -66 112 -158 145 -206 33 -47 65 -91 71 -97 5 -7 33 -46 62 -87 28 -41 103
-147 165 -235 l114 -160 187 -2 c102 -1 186 2 186 7 0 5 -6 15 -13 22 -7 7
-43 56 -79 108 -37 52 -71 100 -75 105 -5 6 -24 33 -43 60 -19 28 -38 55 -42
60 -5 6 -87 120 -183 255 -95 135 -213 300 -261 367 -47 67 -87 124 -88 128 0
4 26 17 59 30 433 162 677 518 677 985 0 280 -70 506 -210 682 -77 96 -102
120 -194 189 -166 124 -382 204 -658 245 -25 3 -369 8 -765 11 l-720 4 2
-1618z m1318 1313 c55 -3 109 -7 120 -9 11 -3 42 -8 70 -12 127 -18 304 -87
393 -152 142 -103 230 -233 273 -403 18 -68 22 -114 22 -230 1 -178 -16 -262
-77 -385 -97 -195 -276 -329 -522 -390 -174 -43 -243 -47 -784 -47 -239 0
-443 1 -452 1 -17 1 -18 47 -18 816 l0 814 68 3 c106 5 796 0 907 -6z"/>
</g>
</svg>
